# Created by Kenney (www.kenney.nl)

mtllib PrototypeClock.mtl

g mergedBlocks

v 0.5000001 0 -0.3000001
v -0.5000001 0 -0.3
v 0.5000001 0 0.02399996
v -0.5000001 0 0.02400008
v -0.5000001 0.4 -0.3
v 0.5000001 0.4 -0.3000001
v -0.5000001 0.4 0.02400008
v 0.5000001 0.4 0.02399996
v -0.09999999 0.2 0.02400003
v 1.93119E-08 0.28 0.02400002
v 1.93119E-08 0.12 0.02400002
v 0.1 0.2 0.024
v -0.1 0.2 -0.3
v -1.93119E-08 0.12 -0.3
v -1.93119E-08 0.28 -0.3
v 0.09999999 0.2 -0.3
v -0.4000001 0.32 -0.3
v -0.4000001 0.08000001 -0.3
v 0.4 0.32 -0.3000001
v 0.4 0.08000001 -0.3000001
v -0.4 0.08000001 0.02400006
v -0.4 0.32 0.02400006
v 0.4000001 0.08000001 0.02399997
v 0.4000001 0.32 0.02399997
v 0.4119501 0.07880002 -0.2
v -0.3899501 0.07880002 -0.2
v 0.4119501 0.07880002 0.02679997
v -0.3899501 0.07880002 0.02680006
v -0.3899501 0.37 -0.2
v 0.4119501 0.37 -0.2
v -0.3899501 0.37 0.02680006
v 0.4119501 0.37 0.02679997
v -0.06919001 0.2244 0.02680002
v 0.01100001 0.28264 0.02680001
v 0.01100001 0.16616 0.02680001
v 0.09119004 0.2244 0.02680001
v -0.06919004 0.2244 -0.2
v 0.01099999 0.16616 -0.2
v 0.01099999 0.28264 -0.2
v 0.09119001 0.2244 -0.2
v -0.3097601 0.31176 -0.2
v -0.3097601 0.13704 -0.2
v 0.3317601 0.31176 -0.2
v 0.3317601 0.13704 -0.2
v -0.3097601 0.13704 0.02680005
v -0.3097601 0.31176 0.02680005
v 0.3317601 0.13704 0.02679998
v 0.3317601 0.31176 0.02679998

vn 0 -1 0
vn 0 1 0
vn 1 0 -1.192093E-07
vn -1 0 1.192093E-07
vn 1.192093E-07 0 1
vn -1.192093E-07 0 -1
vn 1.192093E-07 0 1
vn -1.192093E-07 0 -1

vt -0.5000001 0.3000001
vt 0.5000001 0.3
vt -0.5000001 -0.02399996
vt 0.5000001 -0.02400008
vt 0.5000001 -0.3
vt -0.5000001 -0.3000001
vt 0.5000001 0.02400008
vt -0.5000001 0.02399996
vt 0.3000001 0
vt -0.02399996 0
vt 0.3000001 0.4
vt -0.02399996 0.4
vt 0.02400008 0
vt -0.3 0
vt 0.02400008 0.4
vt -0.3 0.4
vt -0.09999999 0.2
vt 1.93119E-08 0.28
vt 1.93119E-08 0.12
vt 0.1 0.2
vt 0.5000001 0
vt 0.4000001 0.32
vt 0.5000001 0.4
vt -0.5000001 0.4
vt 0.4000001 0.08000001
vt -0.4 0.32
vt -0.5000001 0
vt -0.4 0.08000001
vt -0.4119501 0.2000001
vt 0.3899502 0.2
vt -0.4119501 -0.02679997
vt 0.3899501 -0.02680006
vt 0.3899502 -0.2
vt -0.4119501 -0.2000001
vt 0.3899501 0.02680006
vt -0.4119501 0.02679997
vt 0.2000001 0.07880002
vt -0.02679997 0.07880002
vt 0.2000001 0.37
vt -0.02679997 0.37
vt 0.02680006 0.07880002
vt -0.2 0.07880002
vt 0.02680006 0.37
vt -0.2 0.37
vt -0.06919002 0.2244
vt 0.01100001 0.28264
vt 0.01100001 0.16616
vt 0.09119004 0.2244
vt 0.06919004 0.2244
vt -0.01099999 0.16616
vt -0.01099999 0.28264
vt -0.09119002 0.2244
vt 0.3899502 0.07880002
vt 0.3097601 0.31176
vt 0.3899502 0.37
vt -0.4119501 0.37
vt 0.3097601 0.13704
vt -0.3317601 0.31176
vt -0.4119501 0.07880002
vt -0.3317601 0.13704
vt -0.3899501 0.37
vt -0.3097601 0.13704
vt -0.3899501 0.07880002
vt 0.4119501 0.07880002
vt -0.3097601 0.31176
vt 0.3317601 0.13704
vt 0.4119501 0.37
vt 0.3317601 0.31176

usemtl steel(Clone)

f 3/3/1 2/2/1 1/1/1
f 2/2/1 3/3/1 4/4/1
f 7/7/2 6/6/2 5/5/2
f 6/6/2 7/7/2 8/8/2
f 6/11/3 3/10/3 1/9/3
f 3/10/3 6/11/3 8/12/3
f 7/15/4 2/14/4 4/13/4
f 2/14/4 7/15/4 5/16/4
f 11/19/5 10/18/5 9/17/5
f 10/18/5 11/19/5 12/20/5
f 15/18/6 14/19/6 13/20/6
f 14/19/6 15/18/6 16/17/6
f 5/23/6 17/22/6 2/21/6
f 17/22/6 5/23/6 6/24/6
f 18/25/6 2/21/6 17/22/6
f 17/22/6 6/24/6 19/26/6
f 2/21/6 18/25/6 1/27/6
f 19/26/6 6/24/6 20/28/6
f 1/27/6 18/25/6 20/28/6
f 1/27/6 20/28/6 6/24/6
f 4/27/5 21/28/5 7/24/5
f 21/28/5 4/27/5 3/21/5
f 22/26/5 7/24/5 21/28/5
f 21/28/5 3/21/5 23/25/5
f 7/24/5 22/26/5 8/23/5
f 23/25/5 3/21/5 24/22/5
f 8/23/5 22/26/5 24/22/5
f 8/23/5 24/22/5 3/21/5
f 18/25/6 15/18/6 13/20/6
f 14/19/6 18/25/6 13/20/6
f 17/22/6 15/18/6 18/25/6
f 18/25/6 14/19/6 20/28/6
f 15/18/6 17/22/6 19/26/6
f 20/28/6 14/19/6 16/17/6
f 15/18/6 19/26/6 16/17/6
f 20/28/6 16/17/6 19/26/6
f 22/26/5 11/19/5 9/17/5
f 10/18/5 22/26/5 9/17/5
f 21/28/5 11/19/5 22/26/5
f 22/26/5 10/18/5 24/22/5
f 11/19/5 21/28/5 23/25/5
f 24/22/5 10/18/5 12/20/5
f 11/19/5 23/25/5 12/20/5
f 24/22/5 12/20/5 23/25/5

usemtl custom2(Clone)

f 27/31/1 26/30/1 25/29/1
f 26/30/1 27/31/1 28/32/1
f 31/35/2 30/34/2 29/33/2
f 30/34/2 31/35/2 32/36/2
f 30/39/3 27/38/3 25/37/3
f 27/38/3 30/39/3 32/40/3
f 31/43/4 26/42/4 28/41/4
f 26/42/4 31/43/4 29/44/4
f 35/47/7 34/46/7 33/45/7
f 34/46/7 35/47/7 36/48/7
f 39/51/8 38/50/8 37/49/8
f 38/50/8 39/51/8 40/52/8
f 29/55/8 41/54/8 26/53/8
f 41/54/8 29/55/8 30/56/8
f 42/57/8 26/53/8 41/54/8
f 41/54/8 30/56/8 43/58/8
f 26/53/8 42/57/8 25/59/8
f 43/58/8 30/56/8 44/60/8
f 25/59/8 42/57/8 44/60/8
f 25/59/8 44/60/8 30/56/8
f 28/63/7 45/62/7 31/61/7
f 45/62/7 28/63/7 27/64/7
f 46/65/7 31/61/7 45/62/7
f 45/62/7 27/64/7 47/66/7
f 31/61/7 46/65/7 32/67/7
f 47/66/7 27/64/7 48/68/7
f 32/67/7 46/65/7 48/68/7
f 32/67/7 48/68/7 27/64/7
f 42/57/8 39/51/8 37/49/8
f 38/50/8 42/57/8 37/49/8
f 41/54/8 39/51/8 42/57/8
f 42/57/8 38/50/8 44/60/8
f 39/51/8 41/54/8 43/58/8
f 44/60/8 38/50/8 40/52/8
f 39/51/8 43/58/8 40/52/8
f 44/60/8 40/52/8 43/58/8
f 46/65/7 35/47/7 33/45/7
f 34/46/7 46/65/7 33/45/7
f 45/62/7 35/47/7 46/65/7
f 46/65/7 34/46/7 48/68/7
f 35/47/7 45/62/7 47/66/7
f 48/68/7 34/46/7 36/48/7
f 35/47/7 47/66/7 36/48/7
f 48/68/7 36/48/7 47/66/7

