# Created by Kenney (www.kenney.nl)

mtllib BasicDoor.mtl

g mergedBlocks

v 0.1154862 2.255973E-17 -0.49
v 0.1154862 0.4685265 -0.49
v 0.1154862 2.255973E-17 -0.47
v 0.1154862 0.4685265 -0.48
v 0.1154862 0.5285265 -0.48
v 0.1154862 0.730648 -0.47
v 0.1154862 0.730648 -0.49
v 0.1154862 0.5285265 -0.49
v -0.1480868 0.5285265 -0.48
v -0.1480868 0.5285265 -0.49
v 0.163003 0.7738451 -0.47
v -0.1956036 0.7738451 -0.47
v 0.163003 0.7738451 -0.5
v -0.1956036 0.7738451 -0.5
v 0.163003 2.255973E-17 -0.5
v 0.163003 2.255973E-17 -0.47
v -0.1480868 0.730648 -0.47
v -0.1480868 0.730648 -0.49
v -0.1956036 2.255973E-17 -0.47
v -0.1480868 2.255973E-17 -0.47
v -0.1480868 2.255973E-17 -0.49
v -0.1956036 2.255973E-17 -0.5
v -0.1480868 0.4685265 -0.48
v -0.1480868 0.4685265 -0.49
v 0.03824599 0.42 -0.4500195
v 0.03873327 0.42 -0.45
v 0.03824599 0.402 -0.4500195
v 0.03873327 0.402 -0.45
v 0.08376683 0.4139999 -0.4522755
v 0.03873327 0.4139999 -0.4522755
v 0.08376683 0.402 -0.4522755
v 0.03873327 0.402 -0.4522755
v 0.03686665 0.42 -0.4503049
v 0.03730462 0.42 -0.4501732
v 0.03686665 0.402 -0.4503049
v 0.03730462 0.402 -0.4501732
v 0.08746815 0.42 -0.4519785
v 0.08746815 0.402 -0.4519785
v 0.08737288 0.42 -0.4516866
v 0.08737288 0.402 -0.4516866
v 0.03873327 0.42 -0.466
v 0.03500002 0.42 -0.466
v 0.03873327 0.4139999 -0.466
v 0.03500002 0.402 -0.466
v 0.03873327 0.402 -0.466
v 0.03609347 0.42 -0.4506665
v 0.03646061 0.42 -0.4504702
v 0.03609347 0.402 -0.4506665
v 0.03646061 0.402 -0.4504702
v 0.03500002 0.42 -0.4522755
v 0.03503196 0.42 -0.4519785
v 0.03512723 0.42 -0.4516866
v 0.0352842 0.42 -0.4514047
v 0.03550018 0.42 -0.4511378
v 0.03577149 0.42 -0.4508903
v 0.03776704 0.42 -0.4500776
v 0.08376683 0.42 -0.45
v 0.08376683 0.42 -0.466
v 0.08425412 0.42 -0.4500195
v 0.08750008 0.42 -0.466
v 0.08473307 0.42 -0.4500776
v 0.08519549 0.42 -0.4501732
v 0.08563346 0.42 -0.4503049
v 0.0860395 0.42 -0.4504702
v 0.08640664 0.42 -0.4506665
v 0.08672862 0.42 -0.4508903
v 0.08699992 0.42 -0.4511378
v 0.08721591 0.42 -0.4514047
v 0.08750008 0.42 -0.4522755
v 0.08376683 0.402 -0.466
v 0.08376683 0.4139999 -0.466
v 0.08721591 0.402 -0.4514047
v 0.03577149 0.402 -0.4508903
v 0.08376683 0.402 -0.45
v 0.08425412 0.402 -0.4500195
v 0.03512723 0.402 -0.4516866
v 0.0352842 0.402 -0.4514047
v 0.08473307 0.402 -0.4500776
v 0.08519549 0.402 -0.4501732
v 0.03500002 0.402 -0.4522755
v 0.03503196 0.402 -0.4519785
v 0.03776704 0.402 -0.4500776
v 0.03550018 0.402 -0.4511378
v 0.08750008 0.402 -0.466
v 0.08563346 0.402 -0.4503049
v 0.0860395 0.402 -0.4504702
v 0.08640664 0.402 -0.4506665
v 0.08672862 0.402 -0.4508903
v 0.08699992 0.402 -0.4511378
v 0.08750008 0.402 -0.4522755
v 0.10125 0.4230041 -0.4500487
v 0.10125 0.4225168 -0.45
v 0.08325 0.4230041 -0.4500487
v 0.08325 0.4225168 -0.45
v 0.09525001 0.3774832 -0.4556888
v 0.09525 0.4225168 -0.4556888
v 0.08325001 0.3774832 -0.4556888
v 0.08325 0.4225168 -0.4556888
v 0.10125 0.4243834 -0.4507622
v 0.10125 0.4239455 -0.450433
v 0.08325 0.4243834 -0.4507622
v 0.08325 0.4239455 -0.450433
v 0.10125 0.3737819 -0.4549462
v 0.08325001 0.3737819 -0.4549462
v 0.10125 0.3738772 -0.4542164
v 0.08325001 0.3738772 -0.4542164
v 0.10125 0.4225168 -0.49
v 0.10125 0.42625 -0.49
v 0.09525 0.4225168 -0.49
v 0.08325 0.42625 -0.49
v 0.08325 0.4225168 -0.49
v 0.10125 0.4251566 -0.4516662
v 0.10125 0.4247895 -0.4511756
v 0.08325 0.4251566 -0.4516662
v 0.08325 0.4247895 -0.4511756
v 0.10125 0.42625 -0.4556888
v 0.10125 0.4262181 -0.4549462
v 0.10125 0.4261228 -0.4542164
v 0.10125 0.4259659 -0.4535118
v 0.10125 0.4257499 -0.4528444
v 0.10125 0.4254786 -0.4522257
v 0.10125 0.423483 -0.4501939
v 0.10125 0.3774832 -0.45
v 0.10125 0.3774832 -0.49
v 0.10125 0.3769959 -0.4500487
v 0.10125 0.37375 -0.49
v 0.10125 0.376517 -0.4501939
v 0.10125 0.3760546 -0.450433
v 0.10125 0.3756166 -0.4507622
v 0.10125 0.3752106 -0.4511756
v 0.10125 0.3748434 -0.4516662
v 0.10125 0.3745214 -0.4522257
v 0.10125 0.3742501 -0.4528444
v 0.10125 0.3740341 -0.4535118
v 0.10125 0.37375 -0.4556888
v 0.08325001 0.3774832 -0.49
v 0.09525001 0.3774832 -0.49
v 0.08325001 0.3740341 -0.4535118
v 0.08325 0.4254786 -0.4522257
v 0.08325001 0.3774832 -0.45
v 0.08325001 0.3769959 -0.4500487
v 0.08325 0.4261228 -0.4542164
v 0.08325 0.4259659 -0.4535118
v 0.08325001 0.376517 -0.4501939
v 0.08325001 0.3760546 -0.450433
v 0.08325 0.42625 -0.4556888
v 0.08325 0.4262181 -0.4549462
v 0.08325 0.423483 -0.4501939
v 0.08325 0.4257499 -0.4528444
v 0.08325001 0.37375 -0.49
v 0.08325001 0.3756166 -0.4507622
v 0.08325001 0.3752106 -0.4511756
v 0.08325001 0.3748434 -0.4516662
v 0.08325001 0.3745214 -0.4522257
v 0.08325001 0.3742501 -0.4528444
v 0.08325001 0.37375 -0.4556888

vn -1 0 0
vn 0 1 0
vn 1 0 0
vn 0 -1 0
vn 0 0 1
vn -0.0799881 0 0.9967958
vn -0.0399184 0 0.9992029
vn 0 0 -1
vn -0.3319535 0 0.9432957
vn -0.2447914 0 0.9695758
vn 0.9774593 0 0.211124
vn 0.9154484 0 0.4024355
vn -0.5204623 0 0.8538846
vn -0.4236565 0 0.9058229
vn 0.8270918 0 0.5620669
vn -0.6219917 0 0.7830239
vn 0.0399184 0 0.9992029
vn 0.0799881 0 0.9967958
vn -0.9154484 0 0.4024355
vn -0.8270918 0 0.5620669
vn 0.1611856 0 0.9869241
vn 0.2447914 0 0.9695758
vn -0.9942681 0 0.106916
vn -0.9774593 0 0.211124
vn -0.1611856 0 0.9869241
vn 0.3319535 0 0.9432957
vn -0.7260078 0 0.6876866
vn 0.9942681 0 0.106916
vn 0.7260078 0 0.6876866
vn 0.6219917 0 0.7830239
vn 0.4236565 0 0.9058229
vn 0.5204623 0 0.8538846
vn -2.344774E-08 0.196694 0.9804649
vn -1.184715E-08 0.09938113 0.9950495
vn -7.874137E-08 0.6605307 0.7507991
vn -6.362826E-08 0.5337527 0.8456407
vn 1.187668E-07 -0.9962885 0.08607645
vn 1.174079E-07 -0.9848893 0.1731849
vn -9.96646E-08 0.8360475 0.5486571
vn -9.059541E-08 0.7599695 0.6499587
vn 1 1.192093E-07 0
vn 1.192093E-07 -1 0
vn -1.192093E-07 1 0
vn 1.15035E-07 -0.9649838 0.2623097
vn -1.06472E-07 0.893152 0.449755
vn 1.184715E-08 -0.09938113 0.9950495
vn 2.344774E-08 -0.196694 0.9804649
vn -1.174079E-07 0.9848893 0.1731849
vn -1.15035E-07 0.9649838 0.2623097
vn 4.506202E-08 -0.3780077 0.9258024
vn 6.362826E-08 -0.5337527 0.8456407
vn -1.190991E-07 0.9990762 0.04297324
vn -1.187668E-07 0.9962885 0.08607645
vn -4.506202E-08 0.3780077 0.9258024
vn -1 -1.192093E-07 0
vn 7.874137E-08 -0.6605307 0.7507991
vn -1.11476E-07 0.9351287 0.3543079
vn 1.190991E-07 -0.9990762 0.04297324
vn 1.11476E-07 -0.9351287 0.3543079
vn 1.06472E-07 -0.893152 0.449755
vn 9.059541E-08 -0.7599695 0.6499587
vn 9.96646E-08 -0.8360475 0.5486571

vt -0.49 2.255973E-17
vt -0.49 0.4685265
vt -0.47 2.255973E-17
vt -0.48 0.4685265
vt -0.48 0.5285265
vt -0.47 0.730648
vt -0.49 0.730648
vt -0.49 0.5285265
vt -0.1154862 -0.48
vt 0.1480868 -0.48
vt -0.1154862 -0.49
vt 0.1480868 -0.49
vt -0.163003 -0.47
vt 0.1956036 -0.47
vt -0.163003 -0.5
vt 0.1956036 -0.5
vt 0.5 0.7738451
vt 0.5 2.255973E-17
vt 0.47 0.7738451
vt 0.47 2.255973E-17
vt -0.1154862 0.47
vt -0.1154862 0.49
vt 0.1480868 0.47
vt 0.1480868 0.49
vt 0.163003 2.255973E-17
vt 0.1154862 2.255973E-17
vt 0.163003 0.7738451
vt 0.1154862 0.730648
vt -0.1480868 0.730648
vt -0.1956036 0.7738451
vt -0.1956036 2.255973E-17
vt -0.1480868 2.255973E-17
vt 0.1956036 0.47
vt 0.1956036 0.5
vt -0.163003 0.5
vt -0.163003 0.47
vt 0.49 0.730648
vt 0.49 0.5285265
vt 0.47 0.730648
vt 0.48 0.5285265
vt 0.48 0.4685265
vt 0.49 2.255973E-17
vt 0.49 0.4685265
vt -0.5 2.255973E-17
vt -0.5 0.7738451
vt -0.47 0.7738451
vt -0.1154862 0.48
vt 0.1480868 0.48
vt 0.1154862 0.4685265
vt -0.1480868 0.4685265
vt 0.1154862 0.5285265
vt -0.1480868 0.5285265
vt 0.10125 0.4230041
vt 0.10125 0.4225168
vt 0.08325 0.4230041
vt 0.08325 0.4225168
vt -0.09525001 0.3774832
vt -0.09525 0.4225168
vt -0.08325001 0.3774832
vt -0.08325 0.4225168
vt 0.10125 0.4243834
vt 0.10125 0.4239455
vt 0.08325 0.4243834
vt 0.08325 0.4239455
vt -0.10125 0.4549462
vt -0.08325001 0.4549462
vt -0.10125 0.4542164
vt -0.08325001 0.4542164
vt -0.10125 0.4225168
vt -0.10125 0.42625
vt -0.08325 0.42625
vt -0.10125 -0.4516662
vt -0.10125 -0.4511756
vt -0.08325 -0.4516662
vt -0.08325 -0.4511756
vt 0.10125 0.42625
vt 0.10125 0.4262181
vt 0.49 0.4225168
vt 0.4549462 0.4262181
vt 0.49 0.42625
vt 0.10125 0.4261228
vt 0.10125 0.4259659
vt 0.4528444 0.4257499
vt 0.4535118 0.4259659
vt 0.4522257 0.4254786
vt 0.4516662 0.4251566
vt 0.4511756 0.4247895
vt 0.4507622 0.4243834
vt 0.450433 0.4239455
vt 0.4501939 0.423483
vt 0.4500487 0.4230041
vt 0.45 0.4225168
vt 0.45 0.3774832
vt 0.49 0.3774832
vt 0.4500487 0.3769959
vt 0.49 0.37375
vt 0.4501939 0.376517
vt 0.450433 0.3760546
vt 0.4507622 0.3756166
vt 0.4511756 0.3752106
vt 0.4516662 0.3748434
vt 0.4522257 0.3745214
vt 0.10125 0.3742501
vt 0.10125 0.3745214
vt 0.10125 0.37375
vt 0.10125 0.3740341
vt 0.10125 0.3738772
vt 0.10125 0.3737819
vt -0.09525 0.49
vt -0.08325 0.49
vt -0.09525 0.4556888
vt -0.08325 0.4556888
vt -0.08325001 -0.49
vt -0.09525001 -0.49
vt -0.08325001 -0.4556888
vt -0.09525001 -0.4556888
vt -0.10125 0.4535118
vt -0.08325001 0.4535118
vt -0.08325 -0.4522257
vt -0.10125 -0.4522257
vt 0.10125 0.3774832
vt 0.10125 0.3769959
vt 0.08325001 0.3774832
vt 0.08325001 0.3769959
vt -0.08325 -0.4542164
vt -0.10125 -0.4542164
vt -0.08325 -0.4535118
vt -0.10125 -0.4535118
vt 0.10125 0.376517
vt 0.10125 0.3760546
vt 0.08325001 0.376517
vt 0.08325001 0.3760546
vt -0.08325 -0.4556888
vt -0.10125 -0.4556888
vt -0.08325 -0.4549462
vt -0.10125 -0.4549462
vt 0.10125 0.423483
vt 0.08325 0.423483
vt 0.08325 0.42625
vt 0.08325 0.4262181
vt -0.49 0.4225168
vt -0.49 0.42625
vt -0.4549462 0.4262181
vt 0.08325 0.4261228
vt 0.08325 0.4259659
vt -0.4528444 0.4257499
vt -0.4535118 0.4259659
vt -0.4522257 0.4254786
vt -0.4516662 0.4251566
vt -0.4511756 0.4247895
vt -0.4507622 0.4243834
vt -0.450433 0.4239455
vt -0.4501939 0.423483
vt -0.4500487 0.4230041
vt -0.4556888 0.4225168
vt -0.45 0.4225168
vt -0.45 0.3774832
vt -0.4556888 0.3774832
vt -0.49 0.3774832
vt -0.4500487 0.3769959
vt -0.49 0.37375
vt -0.4501939 0.376517
vt -0.450433 0.3760546
vt -0.4507622 0.3756166
vt -0.4511756 0.3752106
vt -0.4516662 0.3748434
vt -0.4522257 0.3745214
vt 0.08325001 0.3742501
vt 0.08325001 0.37375
vt 0.08325001 0.3745214
vt 0.08325001 0.3740341
vt 0.08325001 0.3738772
vt 0.08325001 0.3737819
vt -0.10125 -0.4507622
vt -0.08325 -0.4507622
vt 0.10125 0.3756166
vt 0.08325001 0.3756166
vt -0.08325 -0.4528444
vt -0.10125 -0.4528444
vt -0.10125 0.4556888
vt -0.08325001 0.4556888
vt -0.10125 0.4528444
vt -0.08325001 0.4528444
vt -0.10125 0.4522257
vt -0.08325001 0.4522257
vt -0.10125 0.49
vt -0.08325001 0.49
vt -0.10125 0.4507622
vt -0.10125 0.4511756
vt -0.08325001 0.4507622
vt -0.08325001 0.4511756
vt -0.10125 0.4516662
vt -0.08325001 0.4516662
vt -0.08325 -0.49
vt -0.10125 -0.49
vt -0.10125 0.37375
vt -0.10125 0.3774832
vt -0.08325001 0.37375

usemtl glass(Clone)

f 3/3/1 2/2/1 1/1/1
f 2/2/1 3/3/1 4/4/1
f 4/4/1 3/3/1 5/5/1
f 6/6/1 5/5/1 3/3/1
f 7/7/1 5/5/1 6/6/1
f 5/5/1 7/7/1 8/8/1
f 8/11/2 9/10/2 5/9/2
f 9/10/2 8/11/2 10/12/2
f 13/15/2 12/14/2 11/13/2
f 12/14/2 13/15/2 14/16/2
f 11/19/3 15/18/3 13/17/3
f 15/18/3 11/19/3 16/20/3
f 17/23/4 7/22/4 6/21/4
f 7/22/4 17/23/4 18/24/4
f 11/27/5 3/26/5 16/25/5
f 3/26/5 11/27/5 6/28/5
f 6/28/5 11/27/5 17/29/5
f 12/30/5 17/29/5 11/27/5
f 19/31/5 17/29/5 12/30/5
f 17/29/5 19/31/5 20/32/5
f 19/33/4 21/24/4 20/23/4
f 22/34/4 21/24/4 19/33/4
f 22/34/4 1/22/4 21/24/4
f 15/35/4 1/22/4 22/34/4
f 15/35/4 3/21/4 1/22/4
f 3/21/4 15/35/4 16/36/4
f 17/39/3 10/38/3 18/37/3
f 10/38/3 17/39/3 9/40/3
f 9/40/3 17/39/3 23/41/3
f 20/20/3 23/41/3 17/39/3
f 21/42/3 23/41/3 20/20/3
f 23/41/3 21/42/3 24/43/3
f 19/3/1 14/45/1 22/44/1
f 14/45/1 19/3/1 12/46/1
f 23/48/4 2/22/4 4/47/4
f 2/22/4 23/48/4 24/24/4
f 5/51/5 23/50/5 4/49/5
f 23/50/5 5/51/5 9/52/5
f 2/49/5 21/32/5 1/26/5
f 21/32/5 2/49/5 24/50/5
f 7/28/5 10/52/5 8/51/5
f 10/52/5 7/28/5 18/29/5
f 27/55/6 26/54/7 25/53/6
f 26/54/7 27/55/6 28/56/7
f 31/59/8 30/58/8 29/57/8
f 30/58/8 31/59/8 32/60/8
f 35/63/9 34/62/10 33/61/9
f 34/62/10 35/63/9 36/64/10
f 39/67/12 38/66/11 37/65/11
f 38/66/11 39/67/12 40/68/12
f 43/58/8 42/70/8 41/69/8
f 42/70/8 43/58/8 44/71/8
f 44/71/8 43/58/8 45/60/8
f 48/74/13 47/73/14 46/72/13
f 47/73/14 48/74/13 49/75/14
f 51/77/2 42/76/2 50/76/2
f 42/80/2 51/79/2 41/78/2
f 41/54/2 51/77/2 52/81/2
f 41/54/2 52/81/2 53/82/2
f 41/78/2 53/84/2 54/83/2
f 41/78/2 54/83/2 55/85/2
f 41/78/2 55/85/2 46/86/2
f 41/78/2 46/86/2 47/87/2
f 41/78/2 47/87/2 33/88/2
f 41/78/2 33/88/2 34/89/2
f 41/78/2 34/89/2 56/90/2
f 41/78/2 56/90/2 25/91/2
f 41/78/2 25/91/2 26/92/2
f 41/78/2 26/92/2 57/93/2
f 41/78/2 57/93/2 58/94/2
f 58/94/2 57/93/2 59/95/2
f 58/94/2 59/95/2 60/96/2
f 60/96/2 59/95/2 61/97/2
f 60/96/2 61/97/2 62/98/2
f 60/96/2 62/98/2 63/99/2
f 60/96/2 63/99/2 64/100/2
f 60/96/2 64/100/2 65/101/2
f 60/96/2 65/101/2 66/102/2
f 60/105/2 66/104/2 67/103/2
f 60/105/2 67/103/2 68/106/2
f 60/105/2 68/106/2 39/107/2
f 60/105/2 39/107/2 37/108/2
f 60/105/2 37/108/2 69/105/2
f 30/111/3 45/110/3 43/109/3
f 45/110/3 30/111/3 32/112/3
f 31/115/1 71/114/1 70/113/1
f 71/114/1 31/115/1 29/116/1
f 68/117/15 40/68/12 39/67/12
f 40/68/12 68/117/15 72/118/15
f 48/74/13 55/120/16 73/119/16
f 55/120/16 48/74/13 46/72/13
f 74/123/17 59/122/18 57/121/17
f 59/122/18 74/123/17 75/124/18
f 77/127/20 52/126/19 76/125/19
f 52/126/19 77/127/20 53/128/20
f 78/131/21 62/130/22 61/129/21
f 62/130/22 78/131/21 79/132/22
f 81/135/24 50/134/23 80/133/23
f 50/134/23 81/135/24 51/136/24
f 76/125/19 51/136/24 81/135/24
f 51/136/24 76/125/19 52/126/19
f 82/138/25 25/53/6 56/137/25
f 25/53/6 82/138/25 27/55/6
f 44/139/4 81/140/4 80/139/4
f 81/143/4 44/142/4 45/141/4
f 81/140/4 45/56/4 76/144/4
f 76/144/4 45/56/4 77/145/4
f 77/147/4 45/141/4 83/146/4
f 83/146/4 45/141/4 73/148/4
f 73/148/4 45/141/4 48/149/4
f 48/149/4 45/141/4 49/150/4
f 49/150/4 45/141/4 35/151/4
f 35/151/4 45/141/4 36/152/4
f 36/152/4 45/141/4 82/153/4
f 82/153/4 45/141/4 27/154/4
f 27/154/4 45/141/4 32/155/4
f 27/55/4 32/56/4 28/56/4
f 32/155/4 74/157/4 28/156/4
f 74/157/4 32/155/4 31/158/4
f 74/123/4 31/123/4 75/124/4
f 75/160/4 31/158/4 70/159/4
f 75/160/4 70/159/4 84/161/4
f 75/160/4 84/161/4 78/162/4
f 78/162/4 84/161/4 79/163/4
f 79/163/4 84/161/4 85/164/4
f 85/164/4 84/161/4 86/165/4
f 86/165/4 84/161/4 87/166/4
f 87/166/4 84/161/4 88/167/4
f 88/170/4 84/169/4 89/168/4
f 89/168/4 84/169/4 72/171/4
f 72/171/4 84/169/4 40/172/4
f 40/172/4 84/169/4 38/173/4
f 38/173/4 84/169/4 90/169/4
f 49/75/14 33/174/9 47/73/14
f 33/174/9 49/75/14 35/175/9
f 79/132/22 63/176/26 62/130/22
f 63/176/26 79/132/22 85/177/26
f 83/178/27 53/128/20 77/127/20
f 53/128/20 83/178/27 54/179/27
f 37/65/11 90/181/28 69/180/28
f 90/181/28 37/65/11 38/66/11
f 26/54/5 74/123/5 57/121/5
f 74/123/5 26/54/5 28/56/5
f 66/184/30 89/183/29 67/182/29
f 89/183/29 66/184/30 88/185/30
f 69/180/3 84/187/3 60/186/3
f 84/187/3 69/180/3 90/181/3
f 75/124/18 61/129/21 59/122/18
f 61/129/21 75/124/18 78/131/21
f 85/190/26 64/189/31 63/188/26
f 64/189/31 85/190/26 86/191/31
f 86/191/31 65/192/32 64/189/31
f 65/192/32 86/191/31 87/193/32
f 80/133/1 42/195/1 44/194/1
f 42/195/1 80/133/1 50/134/1
f 36/64/10 56/137/25 34/62/10
f 56/137/25 36/64/10 82/138/25
f 65/192/32 88/185/30 66/184/30
f 88/185/30 65/192/32 87/193/32
f 67/182/29 72/118/15 68/117/15
f 72/118/15 67/182/29 89/183/29
f 73/119/16 54/179/27 83/178/27
f 54/179/27 73/119/16 55/120/16
f 84/198/8 58/197/8 60/196/8
f 58/197/8 84/198/8 71/57/8
f 71/57/8 84/198/8 70/59/8
f 43/141/4 29/158/4 30/155/4
f 29/158/4 43/141/4 71/159/4
f 71/57/8 41/69/8 58/197/8
f 41/69/8 71/57/8 43/58/8
f 93/55/33 92/54/34 91/53/33
f 92/54/34 93/55/33 94/56/34
f 97/59/8 96/58/8 95/57/8
f 96/58/8 97/59/8 98/60/8
f 101/63/35 100/62/36 99/61/35
f 100/62/36 101/63/35 102/64/36
f 105/67/38 104/66/37 103/65/37
f 104/66/37 105/67/38 106/68/38
f 109/58/8 108/70/8 107/69/8
f 108/70/8 109/58/8 110/71/8
f 110/71/8 109/58/8 111/60/8
f 114/74/39 113/73/40 112/72/39
f 113/73/40 114/74/39 115/75/40
f 117/77/41 108/76/41 116/76/41
f 108/80/41 117/79/41 107/78/41
f 107/54/41 117/77/41 118/81/41
f 107/54/41 118/81/41 119/82/41
f 107/78/41 119/84/41 120/83/41
f 107/78/41 120/83/41 121/85/41
f 107/78/41 121/85/41 112/86/41
f 107/78/41 112/86/41 113/87/41
f 107/78/41 113/87/41 99/88/41
f 107/78/41 99/88/41 100/89/41
f 107/78/41 100/89/41 122/90/41
f 107/78/41 122/90/41 91/91/41
f 107/78/41 91/91/41 92/92/41
f 107/78/41 92/92/41 123/93/41
f 107/78/41 123/93/41 124/94/41
f 124/94/41 123/93/41 125/95/41
f 124/94/41 125/95/41 126/96/41
f 126/96/41 125/95/41 127/97/41
f 126/96/41 127/97/41 128/98/41
f 126/96/41 128/98/41 129/99/41
f 126/96/41 129/99/41 130/100/41
f 126/96/41 130/100/41 131/101/41
f 126/96/41 131/101/41 132/102/41
f 126/105/41 132/104/41 133/103/41
f 126/105/41 133/103/41 134/106/41
f 126/105/41 134/106/41 105/107/41
f 126/105/41 105/107/41 103/108/41
f 126/105/41 103/108/41 135/105/41
f 96/111/42 111/110/42 109/109/42
f 111/110/42 96/111/42 98/112/42
f 97/115/43 137/114/43 136/113/43
f 137/114/43 97/115/43 95/116/43
f 134/117/44 106/68/38 105/67/38
f 106/68/38 134/117/44 138/118/44
f 114/74/39 121/120/45 139/119/45
f 121/120/45 114/74/39 112/72/39
f 140/123/46 125/122/47 123/121/46
f 125/122/47 140/123/46 141/124/47
f 143/127/49 118/126/48 142/125/48
f 118/126/48 143/127/49 119/128/49
f 144/131/50 128/130/51 127/129/50
f 128/130/51 144/131/50 145/132/51
f 147/135/53 116/134/52 146/133/52
f 116/134/52 147/135/53 117/136/53
f 142/125/48 117/136/53 147/135/53
f 117/136/53 142/125/48 118/126/48
f 148/138/54 91/53/33 122/137/54
f 91/53/33 148/138/54 93/55/33
f 110/139/55 147/140/55 146/139/55
f 147/143/55 110/142/55 111/141/55
f 147/140/55 111/56/55 142/144/55
f 142/144/55 111/56/55 143/145/55
f 143/147/55 111/141/55 149/146/55
f 149/146/55 111/141/55 139/148/55
f 139/148/55 111/141/55 114/149/55
f 114/149/55 111/141/55 115/150/55
f 115/150/55 111/141/55 101/151/55
f 101/151/55 111/141/55 102/152/55
f 102/152/55 111/141/55 148/153/55
f 148/153/55 111/141/55 93/154/55
f 93/154/55 111/141/55 98/155/55
f 93/55/55 98/56/55 94/56/55
f 98/155/55 140/157/55 94/156/55
f 140/157/55 98/155/55 97/158/55
f 140/123/55 97/123/55 141/124/55
f 141/160/55 97/158/55 136/159/55
f 141/160/55 136/159/55 150/161/55
f 141/160/55 150/161/55 144/162/55
f 144/162/55 150/161/55 145/163/55
f 145/163/55 150/161/55 151/164/55
f 151/164/55 150/161/55 152/165/55
f 152/165/55 150/161/55 153/166/55
f 153/166/55 150/161/55 154/167/55
f 154/170/55 150/169/55 155/168/55
f 155/168/55 150/169/55 138/171/55
f 138/171/55 150/169/55 106/172/55
f 106/172/55 150/169/55 104/173/55
f 104/173/55 150/169/55 156/169/55
f 115/75/40 99/174/35 113/73/40
f 99/174/35 115/75/40 101/175/35
f 145/132/51 129/176/56 128/130/51
f 129/176/56 145/132/51 151/177/56
f 149/178/57 119/128/49 143/127/49
f 119/128/49 149/178/57 120/179/57
f 103/65/37 156/181/58 135/180/58
f 156/181/58 103/65/37 104/66/37
f 92/54/5 140/123/5 123/121/5
f 140/123/5 92/54/5 94/56/5
f 132/184/60 155/183/59 133/182/59
f 155/183/59 132/184/60 154/185/60
f 135/180/42 150/187/42 126/186/42
f 150/187/42 135/180/42 156/181/42
f 141/124/47 127/129/50 125/122/47
f 127/129/50 141/124/47 144/131/50
f 151/190/56 130/189/61 129/188/56
f 130/189/61 151/190/56 152/191/61
f 152/191/61 131/192/62 130/189/61
f 131/192/62 152/191/61 153/193/62
f 146/133/43 108/195/43 110/194/43
f 108/195/43 146/133/43 116/134/43
f 102/64/36 122/137/54 100/62/36
f 122/137/54 102/64/36 148/138/54
f 131/192/62 154/185/60 132/184/60
f 154/185/60 131/192/62 153/193/62
f 133/182/59 138/118/44 134/117/44
f 138/118/44 133/182/59 155/183/59
f 139/119/45 120/179/57 149/178/57
f 120/179/57 139/119/45 121/120/45
f 150/198/8 124/197/8 126/196/8
f 124/197/8 150/198/8 137/57/8
f 137/57/8 150/198/8 136/59/8
f 109/141/55 95/158/55 96/155/55
f 95/158/55 109/141/55 137/159/55
f 137/57/8 107/69/8 124/197/8
f 107/69/8 137/57/8 109/58/8

